<svg
  xmlns="http://www.w3.org/2000/svg"
  xmlns:xlink="http://www.w3.org/1999/xlink"
  style="display: none"
>
  <symbol id="icon" viewBox="0 0 24 24">
    <path
      d="M5.88 18.65a4.1 4.1 0 0 1-.86-.81l-.46-.58c-.46-.58-.76-.84-1.06-.95a1 1 0 1 1 .68-1.88c.75.27 1.26.73 1.94 1.58l.44.54c.19.23.33.37.44.44.2.14.58.2 1.15.14.02-.38.1-.75.2-1.1-2.97-.72-4.65-2.63-4.65-6.39 0-1.24.37-2.36 1.06-3.3a5.2 5.2 0 0 1 .3-3.18 1 1 0 0 1 .63-.59l.2-.04c.81-.13 1.95.17 3.42 1.1a11.73 11.73 0 0 1 5.38 0c1.47-.94 2.6-1.23 3.42-1.1l.21.05c.29.09.51.3.62.58a5.2 5.2 0 0 1 .3 3.19c.7.93 1.06 2.04 1.06 3.29 0 3.76-1.67 5.66-4.64 6.4.12.4.19.87.19 1.37v2.01l-.01.7a1 1 0 0 1-.02 1.97c-1.14.22-1.98-.54-1.98-1.53a76.27 76.27 0 0 1 0-1.15l.01-2c0-.7-.18-1.15-.43-1.36a1 1 0 0 1 .54-1.75c2.97-.33 4.34-1.48 4.34-4.66 0-.95-.31-1.74-.91-2.4a1 1 0 0 1-.2-1.05c.17-.41.25-.96.1-1.61-.5.14-1.12.44-1.86.95a1 1 0 0 1-.84.13 9.63 9.63 0 0 0-5.18 0 1 1 0 0 1-.83-.13c-.75-.5-1.37-.8-1.87-.95-.14.66-.07 1.2.1 1.61a1 1 0 0 1-.2 1.05c-.6.65-.9 1.45-.9 2.4 0 3.17 1.36 4.33 4.31 4.66a1 1 0 0 1 .55 1.75c-.2.17-.43.73-.43 1.36v3.15c0 .99-.84 1.73-1.96 1.53a1 1 0 0 1-.04-1.96v-1a3.53 3.53 0 0 1-2.26-.48Z"
    />
  </symbol>
</svg>
